<?xml version="1.0" encoding="UTF-8" standalone="no"?>
<svg
   xmlns:dc="http://purl.org/dc/elements/1.1/"
   xmlns:cc="http://creativecommons.org/ns#"
   xmlns:rdf="http://www.w3.org/1999/02/22-rdf-syntax-ns#"
   xmlns:svg="http://www.w3.org/2000/svg"
   xmlns="http://www.w3.org/2000/svg"
   xmlns:sodipodi="http://sodipodi.sourceforge.net/DTD/sodipodi-0.dtd"
   xmlns:inkscape="http://www.inkscape.org/namespaces/inkscape"
   viewBox="0.0 0.0 348.0 348.0"
   fill="none"
   version="1.1"
   id="svg951"
   sodipodi:docname="Face Perception.svg"
   inkscape:version="1.0.1 (3bc2e813f5, 2020-09-07)">
  <metadata
     id="metadata957">
    <rdf:RDF>
      <cc:Work
         rdf:about="">
        <dc:format>image/svg+xml</dc:format>
        <dc:type
           rdf:resource="http://purl.org/dc/dcmitype/StillImage" />
      </cc:Work>
    </rdf:RDF>
  </metadata>
  <defs
     id="defs955" />
  <sodipodi:namedview
     pagecolor="#ffffff"
     bordercolor="#666666"
     borderopacity="1"
     objecttolerance="10"
     gridtolerance="10"
     guidetolerance="10"
     inkscape:pageopacity="0"
     inkscape:pageshadow="2"
     inkscape:window-width="1858"
     inkscape:window-height="1057"
     id="namedview953"
     showgrid="false"
     inkscape:snap-bbox="true"
     inkscape:bbox-paths="true"
     inkscape:bbox-nodes="true"
     inkscape:snap-bbox-edge-midpoints="true"
     inkscape:snap-bbox-midpoints="true"
     inkscape:object-paths="true"
     inkscape:snap-intersection-paths="true"
     inkscape:snap-smooth-nodes="true"
     inkscape:snap-midpoints="true"
     inkscape:snap-object-midpoints="true"
     inkscape:snap-center="true"
     inkscape:snap-text-baseline="true"
     inkscape:snap-page="true"
     inkscape:zoom="1.8815543"
     inkscape:cx="142.60737"
     inkscape:cy="147.92273"
     inkscape:window-x="54"
     inkscape:window-y="-8"
     inkscape:window-maximized="1"
     inkscape:current-layer="svg951" />
  <path
     d="M5.079 5.776h336.913v337.67H5.08z"
     stroke-width="2"
     stroke="#000"
     id="path947"
     style="stroke-width:4;stroke-miterlimit:4;stroke-dasharray:none" />
  <path
     d="M282.734 40.554c0-8.376 6.966-15.165 15.56-15.165 4.126 0 8.084 1.597 11.001 4.441 2.918 2.844 4.558 6.702 4.558 10.724 0 8.376-6.966 15.165-15.56 15.165-8.593 0-15.559-6.79-15.559-15.165z"
     stroke-width="2"
     stroke="#000"
     id="path949"
     style="stroke-width:4;stroke-miterlimit:4;stroke-dasharray:none" />
  <rect
     style="fill:#000000;fill-opacity:1;stroke:none;stroke-width:2.14175;stroke-linecap:round;stroke-linejoin:round;stroke-miterlimit:4;stroke-dasharray:none;stroke-opacity:1"
     id="rect893"
     width="206.45456"
     height="206.45456"
     x="70.567039"
     y="104.31776" />
  <path
     style="fill:#000000;fill-opacity:1;stroke:#ffffff;stroke-width:4;stroke-linecap:butt;stroke-linejoin:miter;stroke-miterlimit:4;stroke-dasharray:none;stroke-opacity:1"
     d="m 70.567038,310.77232 c 0,0 15.826275,-50.11767 103.227282,-50.11767 87.40101,0 103.22729,50.11767 103.22729,50.11767 H 173.79432 70.567038"
     id="path891"
     sodipodi:nodetypes="csccc" />
  <path
     id="path873"
     style="fill:#000000;fill-opacity:1;stroke:#ffffff;stroke-width:4;stroke-linecap:butt;stroke-linejoin:miter;stroke-miterlimit:4;stroke-dasharray:none;stroke-opacity:1"
     d="m 173.79432,225.70149 -20.98536,9.37356 c 0,0 5.7397,20.35976 -4.44343,31.35755 -10.18314,10.99779 -2.09538,29.3288 25.42879,29.3288 27.52418,0 35.61193,-18.33101 25.42879,-29.3288 -10.18313,-10.99779 -4.44342,-31.35755 -4.44342,-31.35755 z" />
  <path
     id="path853"
     style="fill:#000000;fill-opacity:1;stroke:#ffffff;stroke-width:4;stroke-linecap:butt;stroke-linejoin:miter;stroke-miterlimit:4;stroke-dasharray:none;stroke-opacity:1"
     d="m 173.79432,137.88644 c -23.85824,0 -31.53871,12.22013 -35.61196,17.51537 -4.07325,5.29523 -8.96115,51.72997 2.03663,76.98415 10.99778,25.25418 33.57533,29.32722 33.57533,29.32722 0,0 22.57755,-4.07304 33.57533,-29.32722 10.99779,-25.25418 6.10989,-71.68892 2.03663,-76.98415 -4.07325,-5.29524 -11.75371,-17.51537 -35.61196,-17.51537 z" />
  <rect
     style="fill:#000000;stroke:none;stroke-width:4.29458;stroke-linecap:round;stroke-linejoin:round;fill-opacity:1"
     id="rect2136"
     width="130.304"
     height="52.367645"
     x="70.567039"
     y="43.30648"
     ry="0" />
  <g
     aria-label="A0"
     id="text2140"
     style="font-style:normal;font-variant:normal;font-weight:normal;font-stretch:normal;font-size:40px;line-height:1.25;font-family:'Ostrich Sans';-inkscape-font-specification:'Ostrich Sans, Normal';font-variant-ligatures:normal;font-variant-caps:normal;font-variant-numeric:normal;font-variant-east-asian:normal;fill:#ffff00;fill-opacity:1;stroke:none">
    <path
       d="m 131.87737,81.850306 c 0.16,0.6 0.8,1.12 1.4,1.12 h 1.16 c 0.96,0 1.6,-0.84 1.4,-1.76 l -5.52,-24.08 c -0.12,-0.6 -0.8,-1.12 -1.4,-1.12 h -0.88 c -0.6,0 -1.24,0.52 -1.4,1.12 l -3.64,15.64 -1.92,8.48 c -0.2,0.92 0.44,1.72 1.4,1.72 h 1.16 c 0.6,0 1.24,-0.52 1.4,-1.12 l 1.4,-6.24 h 4.08 z m -3.4,-16.6 c 0.76,3.4 0.68,4.48 1.12,6.4 h -2.24 z"
       id="path2142" />
    <path
       d="m 138.59734,75.050306 c 0,5.04 1.96,7.92 5.92,7.92 3.92,0 5.88,-3 5.88,-7.92 v -11.16 c 0,-4.92 -1.92,-7.88 -5.88,-7.88 -4,0 -5.92,2.84 -5.92,7.88 z m 4,-11.56 c 0,-2.6 0.64,-3.44 1.92,-3.44 1.24,0 1.88,0.84 1.88,3.44 v 11.96 c 0,2.64 -0.64,3.48 -1.88,3.48 -1.28,0 -1.92,-0.84 -1.92,-3.48 z"
       id="path2144" />
  </g>
</svg>
