<?xml version="1.0" encoding="UTF-8" standalone="no"?>
<svg
   xmlns:dc="http://purl.org/dc/elements/1.1/"
   xmlns:cc="http://creativecommons.org/ns#"
   xmlns:rdf="http://www.w3.org/1999/02/22-rdf-syntax-ns#"
   xmlns:svg="http://www.w3.org/2000/svg"
   xmlns="http://www.w3.org/2000/svg"
   xmlns:sodipodi="http://sodipodi.sourceforge.net/DTD/sodipodi-0.dtd"
   xmlns:inkscape="http://www.inkscape.org/namespaces/inkscape"
   width="256"
   height="256"
   viewBox="0 0 67.733331 67.733331"
   version="1.1"
   id="svg8"
   inkscape:version="1.0.1 (3bc2e813f5, 2020-09-07)"
   sodipodi:docname="combed_hair_face.svg">
  <defs
     id="defs2">
    <pattern
       id="EMFhbasepattern"
       patternUnits="userSpaceOnUse"
       width="6"
       height="6"
       x="0"
       y="0" />
  </defs>
  <sodipodi:namedview
     id="base"
     pagecolor="#ffffff"
     bordercolor="#666666"
     borderopacity="1.0"
     inkscape:pageopacity="0.0"
     inkscape:pageshadow="2"
     inkscape:zoom="1.979899"
     inkscape:cx="59.221922"
     inkscape:cy="97.581039"
     inkscape:document-units="mm"
     inkscape:current-layer="layer1"
     inkscape:document-rotation="0"
     showgrid="false"
     units="px"
     inkscape:snap-bbox="true"
     inkscape:bbox-paths="true"
     inkscape:bbox-nodes="true"
     inkscape:snap-bbox-edge-midpoints="true"
     inkscape:snap-bbox-midpoints="true"
     inkscape:object-paths="true"
     inkscape:snap-intersection-paths="true"
     inkscape:snap-smooth-nodes="true"
     inkscape:snap-midpoints="true"
     inkscape:snap-object-midpoints="true"
     inkscape:snap-center="true"
     inkscape:snap-page="true"
     inkscape:snap-text-baseline="true"
     inkscape:window-width="1858"
     inkscape:window-height="1057"
     inkscape:window-x="54"
     inkscape:window-y="-8"
     inkscape:window-maximized="1" />
  <metadata
     id="metadata5">
    <rdf:RDF>
      <cc:Work
         rdf:about="">
        <dc:format>image/svg+xml</dc:format>
        <dc:type
           rdf:resource="http://purl.org/dc/dcmitype/StillImage" />
        <dc:title />
      </cc:Work>
    </rdf:RDF>
  </metadata>
  <g
     inkscape:label="Layer 1"
     inkscape:groupmode="layer"
     id="layer1">
    <rect
       style="fill:#000000;fill-opacity:1;stroke:none;stroke-width:0.702661;stroke-linecap:round;stroke-linejoin:round;stroke-miterlimit:4;stroke-dasharray:none;stroke-opacity:1"
       id="rect893"
       width="67.73333"
       height="67.73333"
       x="0"
       y="0" />
    <path
       style="fill:#000000;fill-opacity:1;stroke:#ffffff;stroke-width:1.05833;stroke-linecap:butt;stroke-linejoin:miter;stroke-miterlimit:4;stroke-dasharray:none;stroke-opacity:1"
       d="m 0,67.733332 c 0,0 5.1922629,-16.442539 33.866666,-16.442539 28.674404,0 33.866666,16.442539 33.866666,16.442539 L 33.866665,67.73333 0,67.733332"
       id="path891"
       sodipodi:nodetypes="csccc" />
    <path
       id="path873"
       style="fill:#000000;stroke:#ffffff;stroke-width:4;stroke-linecap:butt;stroke-linejoin:miter;stroke-miterlimit:4;stroke-dasharray:none;stroke-opacity:1;fill-opacity:1"
       d="M 128 150.51367 L 101.97852 162.13672 C 101.97852 162.13672 109.09565 187.38247 96.46875 201.01953 C 83.84184 214.65659 93.870511 237.38672 128 237.38672 C 162.12949 237.38672 172.15816 214.65659 159.53125 201.01953 C 146.90435 187.38247 154.02148 162.13672 154.02148 162.13672 L 128 150.51367 z "
       transform="scale(0.26458333)" />
    <path
       id="path853"
       style="fill:#000000;fill-opacity:1;stroke:#ffffff;stroke-width:1.05833;stroke-linecap:butt;stroke-linejoin:miter;stroke-miterlimit:4;stroke-dasharray:none;stroke-opacity:1"
       d="m 33.866666,11.013507 c -7.827381,0 -10.347176,4.009167 -11.683524,5.746419 -1.336347,1.737251 -2.939962,16.9715 0.668176,25.256856 3.608137,8.285355 11.015348,9.621633 11.015348,9.621633 0,0 7.407212,-1.336278 11.015348,-9.621633 3.608138,-8.285356 2.004523,-23.519605 0.668176,-25.256856 -1.336347,-1.737252 -3.856141,-5.746419 -11.683524,-5.746419 z" />
    <path
       style="fill:#000000;fill-opacity:1;stroke:#ffffff;stroke-width:1.05833;stroke-linecap:butt;stroke-linejoin:miter;stroke-miterlimit:4;stroke-dasharray:none;stroke-opacity:1"
       d="m 21.098539,35.279749 c 0,0 -3.525568,-6.426024 -4.327376,-10.10098 -0.801809,-3.674956 -0.734992,-8.218538 2.605877,-11.960311 3.340869,-3.7417734 8.586034,-7.3165033 15.802311,-7.0492337 7.216278,0.2672695 12.327806,3.4745037 12.027128,6.2474247 2.004523,1.102487 5.379458,2.835875 4.52901,9.214223 -0.850445,6.378348 -5.2148,14.409274 -5.2148,14.409274 0,0 -3.227085,-12.994158 -2.628204,-16.818872 -2.078871,1.181175 -8.646207,3.212798 -12.095239,3.732515 -3.449031,0.519717 -5.548,0.578169 -8.173734,-0.236235 -0.614212,1.606398 -0.867419,1.003261 -1.795387,5.953124 -0.927969,4.949864 -0.729586,6.609071 -0.729586,6.609071 z"
       id="path864" />
  </g>
</svg>
