<?xml version="1.0" encoding="UTF-8" standalone="no"?>
<svg
   xmlns:dc="http://purl.org/dc/elements/1.1/"
   xmlns:cc="http://creativecommons.org/ns#"
   xmlns:rdf="http://www.w3.org/1999/02/22-rdf-syntax-ns#"
   xmlns:svg="http://www.w3.org/2000/svg"
   xmlns="http://www.w3.org/2000/svg"
   xmlns:sodipodi="http://sodipodi.sourceforge.net/DTD/sodipodi-0.dtd"
   xmlns:inkscape="http://www.inkscape.org/namespaces/inkscape"
   width="256"
   height="256"
   viewBox="0 0 67.733331 67.733331"
   version="1.1"
   id="svg8"
   inkscape:version="1.0.1 (3bc2e813f5, 2020-09-07)"
   sodipodi:docname="long_hair_face.svg">
  <defs
     id="defs2">
    <pattern
       id="EMFhbasepattern"
       patternUnits="userSpaceOnUse"
       width="6"
       height="6"
       x="0"
       y="0" />
  </defs>
  <sodipodi:namedview
     id="base"
     pagecolor="#ffffff"
     bordercolor="#666666"
     borderopacity="1.0"
     inkscape:pageopacity="0.0"
     inkscape:pageshadow="2"
     inkscape:zoom="1.979899"
     inkscape:cx="68.089392"
     inkscape:cy="163.56112"
     inkscape:document-units="mm"
     inkscape:current-layer="layer1"
     inkscape:document-rotation="0"
     showgrid="false"
     units="px"
     inkscape:snap-bbox="true"
     inkscape:bbox-paths="true"
     inkscape:bbox-nodes="true"
     inkscape:snap-bbox-edge-midpoints="true"
     inkscape:snap-bbox-midpoints="true"
     inkscape:object-paths="true"
     inkscape:snap-intersection-paths="true"
     inkscape:snap-smooth-nodes="true"
     inkscape:snap-midpoints="true"
     inkscape:snap-object-midpoints="true"
     inkscape:snap-center="true"
     inkscape:snap-page="true"
     inkscape:snap-text-baseline="true"
     inkscape:window-width="1858"
     inkscape:window-height="1057"
     inkscape:window-x="54"
     inkscape:window-y="-8"
     inkscape:window-maximized="1" />
  <metadata
     id="metadata5">
    <rdf:RDF>
      <cc:Work
         rdf:about="">
        <dc:format>image/svg+xml</dc:format>
        <dc:type
           rdf:resource="http://purl.org/dc/dcmitype/StillImage" />
        <dc:title />
      </cc:Work>
    </rdf:RDF>
  </metadata>
  <g
     inkscape:label="Layer 1"
     inkscape:groupmode="layer"
     id="layer1">
    <rect
       style="fill:#000000;fill-opacity:1;stroke:none;stroke-width:0.702661;stroke-linecap:round;stroke-linejoin:round;stroke-miterlimit:4;stroke-dasharray:none;stroke-opacity:1"
       id="rect893"
       width="67.73333"
       height="67.73333"
       x="0"
       y="0" />
    <path
       style="fill:#000000;fill-opacity:1;stroke:#ffffff;stroke-width:1.05833;stroke-linecap:butt;stroke-linejoin:miter;stroke-miterlimit:4;stroke-dasharray:none;stroke-opacity:1"
       d="m 0,67.733332 c 0,0 5.1922629,-16.442539 33.866666,-16.442539 28.674404,0 33.866666,16.442539 33.866666,16.442539 L 33.866665,67.73333 0,67.733332"
       id="path891"
       sodipodi:nodetypes="csccc" />
    <path
       id="path873"
       style="fill:#000000;stroke:#ffffff;stroke-width:4;stroke-linecap:butt;stroke-linejoin:miter;stroke-miterlimit:4;stroke-dasharray:none;stroke-opacity:1;fill-opacity:1"
       d="M 128 150.51367 L 101.97852 162.13672 C 101.97852 162.13672 109.09565 187.38247 96.46875 201.01953 C 83.84184 214.65659 93.870511 237.38672 128 237.38672 C 162.12949 237.38672 172.15816 214.65659 159.53125 201.01953 C 146.90435 187.38247 154.02148 162.13672 154.02148 162.13672 L 128 150.51367 z "
       transform="scale(0.26458333)" />
    <path
       id="path853"
       style="fill:#000000;fill-opacity:1;stroke:#ffffff;stroke-width:1.05833;stroke-linecap:butt;stroke-linejoin:miter;stroke-miterlimit:4;stroke-dasharray:none;stroke-opacity:1"
       d="m 33.866666,11.01345 c -7.827381,0 -10.347176,4.009167 -11.683524,5.746419 -1.336347,1.737252 -2.939962,16.971501 0.668176,25.256856 3.608137,8.285356 11.015348,9.621634 11.015348,9.621634 0,0 7.407212,-1.336278 11.015348,-9.621634 C 48.490152,33.73137 46.886537,18.497121 45.55019,16.759869 44.213843,15.022617 41.694049,11.01345 33.866666,11.01345 Z" />
    <path
       style="fill:#000000;fill-opacity:1;stroke:#ffffff;stroke-width:1.05833;stroke-linecap:butt;stroke-linejoin:miter;stroke-miterlimit:4;stroke-dasharray:none;stroke-opacity:1"
       d="m 27.370889,54.023977 -1.713015,-5.392364 -0.200452,1.603618 c 0,0 -1.319643,-2.622581 -1.369756,-3.357573 -0.05011,1.169303 -0.01671,2.15486 -0.01671,2.15486 0,0 -0.801809,-1.637025 -0.88533,-2.004521 0,0.668174 -0.01671,1.453277 -0.01671,1.453277 0,0 -5.595956,-14.415849 -5.595956,-15.819014 -0.200452,1.637025 0,4.209494 0.06682,4.944486 -0.701583,-1.469983 -2.739513,-7.383321 -1.26953,-12.461442 1.469982,-5.078121 3.274051,-7.550364 3.274051,-7.550364 0,0 -3.30746,1.80407 -5.111529,7.416729 -0.06682,-2.138156 1.369756,-8.485807 6.715146,-11.99372 5.345391,-3.507912 15.969354,-3.8085903 20.44612,-1.035669 4.476763,2.772921 7.082642,6.64833 8.285353,10.122834 1.202714,3.474503 1.169305,9.888973 -1.369756,16.002763 -2.539061,6.113791 -3.875408,10.423509 -3.875408,10.423509 l -0.06682,-1.369756 -0.868624,1.971114 0.06682,-2.238382 -1.403167,3.340869 -0.23386,-1.603618 -1.884596,5.265804 c 0,0 -0.401367,-4.092671 0.407527,-5.99888 1.510478,-1.40508 4.827344,-5.339799 5.507765,-10.420995 -1.224367,2.133724 -3.922053,6.008052 -6.436121,7.445708 1.503391,-2.605878 5.57925,-9.521478 5.278572,-12.661894 -0.668173,2.071338 -1.570209,4.142676 -3.841999,5.34539 1.102487,-1.937705 4.209495,-6.013564 1.269529,-14.432554 -2.839738,-1.135896 -4.977894,-1.737252 -9.822153,-1.069078 0.03341,1.302938 1.837478,9.153981 4.309721,12.327807 -1.469983,-0.734992 -4.610399,-3.0736 -5.512435,-5.579252 0.501132,2.171565 2.171565,5.579252 3.274052,7.383321 -1.202714,-0.868627 -3.608139,-2.772921 -4.242903,-4.309721 -1.00226,-0.467723 -4.264347,-2.366387 -6.64833,-7.784225 -0.100226,1.77066 -0.233861,8.185129 1.603617,13.330066 -1.169304,-0.968851 -2.372017,-2.071338 -2.973373,-3.040189 0,2.104747 0.690646,7.544363 1.698375,10.153239 0.506598,0.737992 1.921357,2.585215 2.765984,3.312377 0.212857,0.900121 0.732329,1.929511 0.389072,6.12544 z"
       id="path3784" />
  </g>
</svg>
