<?xml version="1.0" encoding="UTF-8" standalone="no"?>
<svg
   xmlns:dc="http://purl.org/dc/elements/1.1/"
   xmlns:cc="http://creativecommons.org/ns#"
   xmlns:rdf="http://www.w3.org/1999/02/22-rdf-syntax-ns#"
   xmlns:svg="http://www.w3.org/2000/svg"
   xmlns="http://www.w3.org/2000/svg"
   xmlns:sodipodi="http://sodipodi.sourceforge.net/DTD/sodipodi-0.dtd"
   xmlns:inkscape="http://www.inkscape.org/namespaces/inkscape"
   width="256"
   height="256"
   viewBox="0 0 67.733331 67.733331"
   version="1.1"
   id="svg8"
   inkscape:version="1.0.1 (3bc2e813f5, 2020-09-07)"
   sodipodi:docname="raised_hair_face.svg">
  <defs
     id="defs2" />
  <sodipodi:namedview
     id="base"
     pagecolor="#ffffff"
     bordercolor="#666666"
     borderopacity="1.0"
     inkscape:pageopacity="0.0"
     inkscape:pageshadow="2"
     inkscape:zoom="1.979899"
     inkscape:cx="86.649682"
     inkscape:cy="91.677439"
     inkscape:document-units="mm"
     inkscape:current-layer="layer1"
     inkscape:document-rotation="0"
     showgrid="false"
     units="px"
     inkscape:snap-bbox="true"
     inkscape:bbox-paths="true"
     inkscape:bbox-nodes="true"
     inkscape:snap-bbox-edge-midpoints="true"
     inkscape:snap-bbox-midpoints="true"
     inkscape:object-paths="true"
     inkscape:snap-intersection-paths="true"
     inkscape:snap-smooth-nodes="true"
     inkscape:snap-midpoints="true"
     inkscape:snap-object-midpoints="true"
     inkscape:snap-center="true"
     inkscape:snap-page="true"
     inkscape:snap-text-baseline="true"
     inkscape:window-width="1858"
     inkscape:window-height="1057"
     inkscape:window-x="54"
     inkscape:window-y="-8"
     inkscape:window-maximized="1" />
  <metadata
     id="metadata5">
    <rdf:RDF>
      <cc:Work
         rdf:about="">
        <dc:format>image/svg+xml</dc:format>
        <dc:type
           rdf:resource="http://purl.org/dc/dcmitype/StillImage" />
        <dc:title />
      </cc:Work>
    </rdf:RDF>
  </metadata>
  <g
     inkscape:label="Layer 1"
     inkscape:groupmode="layer"
     id="layer1">
    <rect
       style="fill:#000000;fill-opacity:1;stroke:none;stroke-width:0.702661;stroke-linecap:round;stroke-linejoin:round;stroke-miterlimit:4;stroke-dasharray:none;stroke-opacity:1"
       id="rect893"
       width="67.73333"
       height="67.73333"
       x="0"
       y="0" />
    <path
       style="fill:#000000;fill-opacity:1;stroke:#ffffff;stroke-width:1.05833;stroke-linecap:butt;stroke-linejoin:miter;stroke-miterlimit:4;stroke-dasharray:none;stroke-opacity:1"
       d="m 0,67.733332 c 0,0 5.1922629,-16.442539 33.866666,-16.442539 28.674404,0 33.866666,16.442539 33.866666,16.442539 L 33.866665,67.73333 0,67.733332"
       id="path891"
       sodipodi:nodetypes="csccc" />
    <path
       id="path873"
       style="fill:#000000;stroke:#ffffff;stroke-width:4;stroke-linecap:butt;stroke-linejoin:miter;stroke-miterlimit:4;stroke-dasharray:none;stroke-opacity:1;fill-opacity:1"
       d="M 128 150.51367 L 101.97852 162.13672 C 101.97852 162.13672 109.09565 187.38247 96.46875 201.01953 C 83.84184 214.65659 93.870511 237.38672 128 237.38672 C 162.12949 237.38672 172.15816 214.65659 159.53125 201.01953 C 146.90435 187.38247 154.02148 162.13672 154.02148 162.13672 L 128 150.51367 z "
       transform="scale(0.26458333)" />
    <path
       id="path853"
       style="fill:#000000;fill-opacity:1;stroke:#ffffff;stroke-width:1.05833;stroke-linecap:butt;stroke-linejoin:miter;stroke-miterlimit:4;stroke-dasharray:none;stroke-opacity:1"
       d="m 33.866666,11.01325 c -7.827381,0 -10.347176,4.009167 -11.683524,5.746419 -1.336347,1.737252 -2.939962,16.971501 0.668176,25.256856 3.608137,8.285356 11.015348,9.621634 11.015348,9.621634 0,0 7.407212,-1.336278 11.015348,-9.621634 C 48.490152,33.73117 46.886537,18.496921 45.55019,16.759669 44.213843,15.022417 41.694049,11.01325 33.866666,11.01325 Z" />
    <path
       style="fill:#000000;fill-opacity:1;stroke:#ffffff;stroke-width:1.05833;stroke-linecap:butt;stroke-linejoin:miter;stroke-miterlimit:4;stroke-dasharray:none;stroke-opacity:1"
       d="m 33.545385,16.33895 c 2.267858,0 3.53826,-0.113966 4.30666,-0.314418 0.768401,-0.200452 5.847673,-0.651712 8.402863,2.814561 0.417033,3.03196 1.017592,11.455844 0.596159,14.598956 1.023585,-0.07441 5.667393,-8.894301 4.598315,-17.246474 -0.367496,0.400904 -0.701582,0.734991 -0.701582,0.734991 l 0.03341,-1.336347 -0.668174,0.434313 c 0,0 1.236123,-2.706104 2.138156,-3.107009 -0.902033,0 -2.238383,0.167044 -3.107007,1.336348 0.367496,-1.336348 0.935442,-2.572469 1.336347,-2.839739 -0.902033,0.434313 -1.469983,0.734991 -1.737252,1.202713 0.100227,-0.902034 -0.567946,-2.238382 -1.670433,-3.1404169 -1.102487,-0.9020347 -1.33635,-0.9354434 -1.403165,-1.2361214 -0.06682,-0.3006783 0.601356,-1.3363478 0.902033,-1.3697564 -1.00226,0.1336347 -1.637024,0.534539 -2.472242,1.4699824 0.334086,-1.2027129 1.11919,-3.5580256 2.973374,-3.8252951 -1.018966,0.016705 -2.873148,-0.050113 -5.696183,2.8230343 0.300678,-1.2695302 1.11919,-2.5390604 2.204974,-3.3241647 -0.851921,0.1002261 -1.45328,0.2839739 -2.163212,0.7934564 0.392552,-0.726639 1.46163,-2.129804 2.597525,-2.6476387 -1.703845,0.1169304 -2.355312,-0.4009044 -6.848781,3.9255211 0.300677,-0.8519216 0.551243,-1.937704 0.367495,-2.3386083 -0.668173,0.6347652 -2.923262,2.9900778 -3.123713,3.1237126 -0.03341,-0.6681739 0.384199,-2.321904 1.319644,-2.9900778 -1.00226,0.1169304 -3.558027,1.3029389 -4.242903,1.6203215 -0.684881,0.3173825 -2.48895,1.2194172 -3.858706,1.5200954 -1.369756,0.3006782 -3.107008,0.8352172 -4.627104,2.2383822 -1.520095,1.4031654 -1.453278,2.9232604 -1.419869,3.4076864 -0.50113,0.06682 -1.169304,-0.150339 -1.804069,-0.434313 -0.634765,-0.283974 -1.252826,-0.484426 -1.854183,0.167043 0.718287,-0.03341 2.088043,1.052374 2.271791,1.369757 -0.751695,-0.183748 -1.419869,-0.233861 -1.77066,-0.133635 0.451017,0.26727 1.603617,0.918739 1.603617,1.169304 -0.26727,0.150339 -1.052374,0.935444 -2.338609,0.26727 -0.100226,0.551243 -0.283973,1.1526 -1.186008,2.6894 -0.902035,1.5368 -0.947817,7.348247 4.169899,12.326974 -0.127448,-1.836646 0.206639,-14.23127 5.819299,-14.431722 5.612659,-0.200452 2.244506,0.681914 7.052294,0.681914 z"
       id="path865" />
  </g>
</svg>
