<?xml version="1.0" encoding="UTF-8" standalone="no"?>
<svg
   xmlns:dc="http://purl.org/dc/elements/1.1/"
   xmlns:cc="http://creativecommons.org/ns#"
   xmlns:rdf="http://www.w3.org/1999/02/22-rdf-syntax-ns#"
   xmlns:svg="http://www.w3.org/2000/svg"
   xmlns="http://www.w3.org/2000/svg"
   xmlns:sodipodi="http://sodipodi.sourceforge.net/DTD/sodipodi-0.dtd"
   xmlns:inkscape="http://www.inkscape.org/namespaces/inkscape"
   width="256"
   height="256"
   viewBox="0 0 67.733331 67.733331"
   version="1.1"
   id="svg8"
   inkscape:version="1.0.1 (3bc2e813f5, 2020-09-07)"
   sodipodi:docname="sport_glasses_face.svg">
  <defs
     id="defs2">
    <pattern
       id="EMFhbasepattern"
       patternUnits="userSpaceOnUse"
       width="6"
       height="6"
       x="0"
       y="0" />
  </defs>
  <sodipodi:namedview
     id="base"
     pagecolor="#ffffff"
     bordercolor="#666666"
     borderopacity="1.0"
     inkscape:pageopacity="0.0"
     inkscape:pageshadow="2"
     inkscape:zoom="2.8"
     inkscape:cx="59.609429"
     inkscape:cy="145.12017"
     inkscape:document-units="mm"
     inkscape:current-layer="layer1"
     inkscape:document-rotation="0"
     showgrid="false"
     units="px"
     inkscape:snap-bbox="true"
     inkscape:bbox-paths="true"
     inkscape:bbox-nodes="true"
     inkscape:snap-bbox-edge-midpoints="true"
     inkscape:snap-bbox-midpoints="true"
     inkscape:object-paths="true"
     inkscape:snap-intersection-paths="true"
     inkscape:snap-smooth-nodes="true"
     inkscape:snap-midpoints="true"
     inkscape:snap-object-midpoints="true"
     inkscape:snap-center="true"
     inkscape:snap-page="true"
     inkscape:snap-text-baseline="true"
     inkscape:window-width="1858"
     inkscape:window-height="1057"
     inkscape:window-x="54"
     inkscape:window-y="-8"
     inkscape:window-maximized="1" />
  <metadata
     id="metadata5">
    <rdf:RDF>
      <cc:Work
         rdf:about="">
        <dc:format>image/svg+xml</dc:format>
        <dc:type
           rdf:resource="http://purl.org/dc/dcmitype/StillImage" />
        <dc:title></dc:title>
      </cc:Work>
    </rdf:RDF>
  </metadata>
  <g
     inkscape:label="Layer 1"
     inkscape:groupmode="layer"
     id="layer1">
    <rect
       style="fill:#000000;fill-opacity:1;stroke:none;stroke-width:0.702661;stroke-linecap:round;stroke-linejoin:round;stroke-miterlimit:4;stroke-dasharray:none;stroke-opacity:1"
       id="rect893"
       width="67.73333"
       height="67.73333"
       x="0"
       y="0" />
    <path
       style="fill:#000000;fill-opacity:1;stroke:#ffffff;stroke-width:1.05833;stroke-linecap:butt;stroke-linejoin:miter;stroke-miterlimit:4;stroke-dasharray:none;stroke-opacity:1"
       d="m 0,67.733332 c 0,0 5.1922629,-16.442539 33.866666,-16.442539 28.674404,0 33.866666,16.442539 33.866666,16.442539 L 33.866665,67.73333 0,67.733332"
       id="path891"
       sodipodi:nodetypes="csccc" />
    <path
       id="path873"
       style="fill:#000000;stroke:#ffffff;stroke-width:4;stroke-linecap:butt;stroke-linejoin:miter;stroke-miterlimit:4;stroke-dasharray:none;stroke-opacity:1;fill-opacity:1"
       d="M 128 150.51367 L 101.97852 162.13672 C 101.97852 162.13672 109.09565 187.38247 96.46875 201.01953 C 83.84184 214.65659 93.870511 237.38672 128 237.38672 C 162.12949 237.38672 172.15816 214.65659 159.53125 201.01953 C 146.90435 187.38247 154.02148 162.13672 154.02148 162.13672 L 128 150.51367 z "
       transform="scale(0.26458333)" />
    <path
       id="path853"
       style="fill:#000000;fill-opacity:1;stroke:#ffffff;stroke-width:1.05833;stroke-linecap:butt;stroke-linejoin:miter;stroke-miterlimit:4;stroke-dasharray:none;stroke-opacity:1"
       d="m 33.866666,11.013656 c -7.827381,0 -10.347176,4.009167 -11.683524,5.746419 -1.336347,1.737252 -2.939962,16.971501 0.668176,25.256856 3.608137,8.285356 11.015348,9.621634 11.015348,9.621634 0,0 7.407212,-1.336278 11.015348,-9.621634 3.608138,-8.285355 2.004523,-23.519604 0.668176,-25.256856 -1.336347,-1.737252 -3.856141,-5.746419 -11.683524,-5.746419 z" />
    <path
       style="fill:#d1d7de;fill-opacity:1;stroke:#ffffff;stroke-width:1.05833;stroke-linecap:butt;stroke-linejoin:miter;stroke-miterlimit:4;stroke-dasharray:none;stroke-opacity:1"
       d="m 22.584077,37.83675 c 0,0 -1.119345,-7.503856 -0.377976,-8.787945 0.188988,1.464658 0.803199,3.449032 0.803199,3.449032 0,0 0.09449,-8.598958 1.74814,-9.732886 0.897694,2.22061 3.02381,6.094866 4.535716,6.756324 -1.653646,-3.354539 -2.929317,-6.472842 -2.929317,-8.031994 2.504091,3.02381 4.630209,5.480655 11.292039,9.071429 -3.071056,-2.787575 -6.472843,-6.567337 -6.992559,-7.323289 2.882066,2.645833 7.890253,6.425595 8.315476,7.46503 -4.110493,-6.945313 -3.307292,-5.386161 -4.535715,-6.99256 -1.228424,-1.606399 -1.301658,-1.888545 -1.301658,-1.888545 0,0 11.258727,6.531399 11.96031,8.368877 0.133635,1.971112 0.467722,5.579251 0.300677,6.548102 1.169305,-1.937703 7.650591,-6.113789 5.512435,-12.327806 0.701583,0.935444 1.670434,1.937704 1.336347,5.445617 0.467723,-1.269531 1.436574,-4.911078 -1.23612,-7.182869 1.870887,1.069078 3.140416,1.603617 3.708363,1.637026 -1.637025,-1.236121 -5.412208,-4.84426 -5.746295,-5.378799 1.369759,1.035669 2.806332,1.670435 3.842002,1.703843 -1.637028,-1.369756 -4.91108,-4.911077 -4.977895,-5.245164 0.835215,0.100226 2.00452,0.300678 2.472243,-0.03341 -1.57021,-0.300677 -6.982418,-4.209494 -8.218538,-5.211755 -1.236123,-1.0022607 -6.949008,-3.5079123 -11.525998,-1.4699821 -4.576992,2.0379301 -3.507912,1.8708861 -3.775184,2.3051991 -1.00226,-0.434313 -5.245164,-3.2740511 -8.619441,6.046974 -0.902035,0.768399 -2.438835,1.77066 -3.808591,2.104747 1.403165,0.06682 2.672695,0.167044 2.672695,0.167044 0,0 -1.503391,4.409947 -3.608139,5.746294 1.169305,-0.534539 2.037931,-0.734991 3.107009,-2.438834 -0.300678,1.804069 -0.601356,4.543582 -0.434313,5.646069 -0.935443,1.837478 -1.03567,2.204973 -1.03567,2.204973 0,0 1.102487,-0.367495 1.837479,-1.403165 -0.06682,1.03567 -1.169305,3.641548 -1.169305,3.641548 0,0 2.639287,-1.870887 3.207235,-4.142678 0.167043,1.804069 2.237986,8.076781 3.641349,9.283553 z"
       id="path911" />
    <g
       id="g931"
       transform="translate(102.36609,33.711952)">
      <path
         style="fill:none;stroke:#ffffff;stroke-width:2.11667;stroke-linecap:round;stroke-linejoin:miter;stroke-miterlimit:4;stroke-dasharray:none;stroke-opacity:1"
         d="m -80.201822,-3.4490326 c 0,0 7.299661,0.5669648 8.976934,1.6300222 1.677273,1.06305757 1.370163,1.72451635 0.496094,3.7325149"
         id="path858" />
      <path
         style="fill:none;stroke:#ffffff;stroke-width:2.11667;stroke-linecap:round;stroke-linejoin:miter;stroke-miterlimit:4;stroke-dasharray:none;stroke-opacity:1"
         d="m -56.79702,-3.4490342 c 0,0 -7.299661,0.5669648 -8.976934,1.6300223 -1.677273,1.06305737 -1.370164,1.72451627 -0.496094,3.7325149"
         id="path858-7" />
      <path
         id="path862"
         style="fill:#000000;fill-opacity:1;stroke:#ffffff;stroke-width:4;stroke-linecap:round;stroke-linejoin:miter;stroke-miterlimit:4;stroke-dasharray:none;stroke-opacity:1"
         d="m -303.125,-13.035156 c 0,0 -2.3206,8.1244419 1.07227,14.285156 3.39285,6.1607144 14.90932,12.32115 23.83789,14.642578 8.92857,2.321429 10.89257,-8.6601561 10.89257,-8.6601561 3.30358,-7.58928607 4.4643,-10.0895672 -1.875,-14.1074219 -6.33929,-4.017855 -33.92773,-6.160156 -33.92773,-6.160156 z"
         transform="scale(0.26458333)" />
      <path
         id="path862-7"
         style="fill:#000000;fill-opacity:1;stroke:#ffffff;stroke-width:3.99999;stroke-linecap:round;stroke-linejoin:miter;stroke-miterlimit:4;stroke-dasharray:none;stroke-opacity:1"
         d="m -214.66602,-13.035156 c 0,0 -27.58843,2.142301 -33.92773,6.160156 -6.3393,4.0178547 -5.17857,6.51813579 -1.875,14.1074219 0,0 1.964,10.9815851 10.89258,8.6601561 8.92857,-2.321428 20.44503,-8.4818641 23.83789,-14.642578 3.39286,-6.1607141 1.07226,-14.285156 1.07226,-14.285156 z"
         transform="scale(0.26458333)" />
      <path
         style="fill:none;stroke:#ffffff;stroke-width:1.05833;stroke-linecap:butt;stroke-linejoin:miter;stroke-miterlimit:4;stroke-dasharray:none;stroke-opacity:1"
         d="m -70.08461,0.24354434 c 1.08808,-0.97770627 2.145296,-0.99090164 3.17038,0"
         id="path882"
         sodipodi:nodetypes="cc" />
    </g>
  </g>
</svg>
